<?xml version="1.0" encoding="UTF-8"?>
<svg id="Layer_1" data-name="Layer 1" xmlns="http://www.w3.org/2000/svg" viewBox="0 0 2601 2427">
  <defs>
    <style>
      .cls-1 {
        fill: #2f7a44;
      }

      .cls-1, .cls-2, .cls-3, .cls-4, .cls-5 {
        stroke-width: 0px;
      }

      .cls-2 {
        fill: #76b42b;
      }

      .cls-3 {
        fill: #f4a927;
      }

      .cls-4 {
        fill: #34b2e3;
      }

      .cls-5 {
        fill: #4da8da;
      }
    </style>
  </defs>
  <path class="cls-4" d="M873.24,1434.56c-1.14-.2-2.03-.36-2.48-.45.2-.04.38-.07.58-.13.63.2,1.27.4,1.9.58Z"/>
  <path class="cls-2" d="M1832.29,1428.18c1.74,16.78,1.58,33.63-.23,50.4-3.59,22.42-9.91,44.22-18.32,65.31,0,.03-.01.04-.03.07-2.3,5.22-4.73,10.38-7.29,15.47-109.01,167.48-297.88,278.21-512.61,278.21-181.06,0-343.74-78.74-455.67-203.83,14.47,5.43,29.25,10.02,44.22,13.75,84.47,21.06,173.88,17.16,257.9-4.16,80.26-20.37,156.21-57.63,225.27-102.82,35.72-23.36,69.9-49.06,103.17-75.77,31.22-25.06,60.92-51.86,91.59-77.58,6.47-5.44,13.03-10.78,19.66-16.01.05-.05.12-.11.19-.15,21.76-16.47,44.71-31.41,69.64-42.67,15.26-6,30.99-10.54,47.16-13.24,11.65-1.17,23.34-1.31,34.99-.22,8.91,1.58,17.61,3.89,26.1,7.03,8.09,3.83,15.77,8.38,23.06,13.57,8.01,6.72,15.33,14.16,21.98,22.21,7.26,10.1,13.49,20.86,18.68,32.16,4.77,12.39,8.32,25.17,10.54,38.27Z"/>
  <path class="cls-1" d="M1832.29,1428.18c1.74,16.78,1.58,33.63-.23,50.4-3.59,22.42-9.91,44.22-18.32,65.31,0,.03-.01.04-.03.07-2.3,5.22-4.73,10.38-7.29,15.47-109.01,167.48-297.88,278.21-512.61,278.21-181.06,0-343.74-78.74-455.67-203.83,14.47,5.43,29.25,10.02,44.22,13.75,84.47,21.06,173.88,17.16,257.9-4.16,80.26-20.37,156.21-57.63,225.27-102.82,35.72-23.36,69.9-49.06,103.17-75.77,31.22-25.06,60.92-51.86,91.59-77.58,6.47-5.44,13.03-10.78,19.66-16.01.05-.05.12-.11.19-.15,21.76-16.47,44.71-31.41,69.64-42.67,15.26-6,30.99-10.54,47.16-13.24,11.65-1.17,23.34-1.31,34.99-.22,8.91,1.58,17.61,3.89,26.1,7.03,8.09,3.83,15.77,8.38,23.06,13.57,8.01,6.72,15.33,14.16,21.98,22.21,7.26,10.1,13.49,20.86,18.68,32.16,4.77,12.39,8.32,25.17,10.54,38.27Z"/>
  <path class="cls-1" d="M1907.82,1219.07c0,39.93,2.21,86.16-8.84,130.34-7.96-15.54-22.67-36.47-33.71-50.3-21.15-26.49-71.45-61.18-102.7-73.73-35.87-14.41-75.51-14.52-113.06-7.87-35.33,6.24-69.54,21.32-99.94,40.09-34.81,21.49-66.18,48.3-96.98,75.06-27.36,23.74-54.92,47.21-83.49,69.49-.22.18-.45.35-.68.53-59.37,45.31-122.7,85.75-191.36,115.45-44.44,18.21-90.72,31.48-138.26,38.51-.04,0-.1.01-.14.01-38.57,4.71-77.54,5.21-116.13.63-30.87-4.64-61.18-12.54-90.14-24.21-.04,0-.1-.03-.14-.05-24.19-10.78-47.08-24.26-68.32-40.1-.05-.03-.11-.07-.16-.12-8.02-6.45-15.77-13.23-23.2-20.34,68.2,31.87,144.92,43.6,219.82,35.14,92.37-10.44,180.26-44.67,257.43-96.3,74.64-49.96,139.47-112.8,197.65-180.9,57.79-67.65,107.27-143.7,173.97-203.27,6.45-5.75,13.04-11.3,19.79-16.66,20.6-15.43,42.58-28.9,66.06-39.45.01-.01.03-.01.03-.01,17.35-6.89,35.3-12.1,53.73-15.09,14.85-1.52,29.78-1.51,44.62.03,13.54,2.23,26.78,5.75,39.6,10.65,26.07,11.69,33.66,21.88,41.54,27.16,28.98,71.13,53.02,143.79,53.02,225.34Z"/>
  <path class="cls-5" d="M1780.46,893.47c-1.9-7.43-6.4-16.45-9.42-22.17-34.55-65.83-103.57-110.75-183.07-110.75-38.88,0-75.24,10.74-106.28,29.42,33.49,87.55,3.69,167.63,3.69,167.63,10.56-105.31-45.64-167.69-47.64-169.89l-.04-.04c-36.89-38.68-84.96-67.57-140.8-80.99-87.11-20.97-174.51.11-240.87,50.17,61.29,48.98,100.63,124.33,100.63,208.71,0,147.27-119.82,267.09-267.09,267.09-65.7,0-125.93-23.86-172.5-63.35-11.49,25.07-17.87,52.69-17.87,81.72,0,90.79,62.27,167.89,148.85,195.6.63.2,1.27.4,1.9.58,4.66.87,13.69,2.5,15.55,2.77,32.42,3.81,65.13,3.49,97.53-.42,13.78-2.08,27.47-4.77,40.97-8.03.02,0,.02-.02.04-.02,6.08-1.45,12.11-3.04,18.12-4.72,19.4-5.46,38.5-12.1,57.19-19.73,46.31-20.23,89.47-46.6,129.64-77.15.18-.11.33-.25.51-.38.94-.74,1.88-1.48,2.82-2.26,48.93-38.98,93.06-83.59,134.04-130.82,9.47-10.92,18.75-22.1,27.92-33.4,67.32-83.01,128.69-173.35,221.66-229.58,49.16-29.74,107.69-49.25,165.72-46,2.06.11,4.1.25,6.15.42,3,.25,9.06.99,14.48,2.8-.52-1.37-1.39-5.55-1.81-7.23Z"/>
  <path class="cls-3" d="M891.77,1163.87c-109.34,0-198.3-88.96-198.3-198.3s88.96-198.3,198.3-198.3,198.3,88.96,198.3,198.3-88.96,198.3-198.3,198.3Z"/>
</svg>