<?xml version="1.0" encoding="UTF-8"?>
<svg id="Layer_1" data-name="Layer 1" xmlns="http://www.w3.org/2000/svg" viewBox="0 0 2601 1771">
  <defs>
    <style>
      .cls-1 {
        fill: #2f7a44;
      }

      .cls-1, .cls-2, .cls-3, .cls-4 {
        stroke-width: 0px;
      }

      .cls-5 {
        fill: none;
        stroke: #aaa;
        stroke-dasharray: 0 12;
        stroke-miterlimit: 10;
        stroke-width: .98px;
      }

      .cls-2 {
        fill: #f4a927;
      }

      .cls-3 {
        fill: #4da8da;
      }

      .cls-4 {
        fill: #3c693d;
      }
    </style>
  </defs>
  <path class="cls-4" d="M1096.94,777.58h45.27l51.09,108.53,51.09-108.53h45.53v185.3h-39.71v-114.88l-37.59,80.21h-40.24l-35.47-79.94v114.62h-39.97v-185.3Z"/>
  <path class="cls-4" d="M1318.63,954.8c-10.32-8.03-15.49-19.28-15.49-33.75s5.56-25.68,16.68-33.62c11.12-7.94,26.82-11.91,47.12-11.91h26.74c-.71-4.76-2.69-8.03-5.96-9.79-3.27-1.76-8.25-2.65-14.96-2.65l-53.74-.26v-32.29h45.53c23.47,0,40.72,3.84,51.75,11.51,11.03,7.68,16.54,20.69,16.54,39.04v81.8h-34.94v-6.62c-9.18,7.06-21.62,10.59-37.32,10.59-17.65,0-31.63-4.01-41.96-12.04ZM1385.74,930.84c5.47-3.71,8.21-9.88,8.21-18.53v-7.15h-28.06c-7.59,0-13.37,1.42-17.34,4.24-3.97,2.83-5.96,6.71-5.96,11.65s1.99,8.74,5.96,11.38c3.97,2.65,9.75,3.97,17.34,3.97s14.38-1.85,19.85-5.56Z"/>
  <path class="cls-4" d="M1565.87,842.7c-9.79-10.76-24.4-16.15-43.81-16.15-8.65,0-16.54,1.86-23.69,5.56-7.15,3.71-12.93,8.39-17.34,14.03v-68.56h-34.94v185.3h35.47v-77.56c0-7.77,2.74-13.94,8.21-18.53,3.59-3.01,7.9-5.03,12.93-6.06,14.34-9.46,31.03-8.77,47.81-6.49,1.91.27,2.09,1.46,1.41,3.13-4.41,11.07-7.96,22.23-9.25,34.66-.37,3.56-1.07,7-2.08,10.33v60.52h39.97v-74.39c0-19.76-4.89-35.02-14.69-45.79ZM1534.28,868.16c.6-.56,1.2-1.13,1.8-1.7-.95.21-1.82.52-2.65.92.3.25.58.51.85.78Z"/>
  <path class="cls-4" d="M1593.8,830.52h39.97v132.36h-39.97v-132.36ZM1600.41,810.14c-3.88-3.88-5.82-8.74-5.82-14.56s1.94-10.41,5.82-14.29,9-5.82,15.35-5.82,11.73,1.94,15.62,5.82c3.88,3.88,5.82,8.65,5.82,14.29s-1.94,10.68-5.82,14.56-9.09,5.82-15.62,5.82-11.47-1.94-15.35-5.82Z"/>
  <path class="cls-4" d="M1689.22,951.36c-10.15-7.68-15.22-20.16-15.22-37.46v-53.47h-23.56v-29.91h23.56v-52.94h40.24v52.94h28.59v29.91h-51.09v2.12c5.29,0,10.37,1.41,15.22,4.24,4.85,2.83,7.28,6.97,7.28,12.44v37.32c0,9,5.12,13.5,15.35,13.5h11.65v32.82h-9.53c-18.18,0-32.34-3.84-42.49-11.51Z"/>
  <path class="cls-4" d="M1771.54,954.8c-10.32-8.03-15.49-19.28-15.49-33.75s5.56-25.68,16.68-33.62c11.12-7.94,26.82-11.91,47.12-11.91h26.74c-.71-4.76-2.69-8.03-5.96-9.79-3.27-1.76-8.25-2.65-14.96-2.65l-53.74-.26v-32.29h45.53c23.47,0,40.72,3.84,51.75,11.51,11.03,7.68,16.54,20.69,16.54,39.04v81.8h-34.94v-6.62c-9.18,7.06-21.62,10.59-37.32,10.59-17.65,0-31.63-4.01-41.96-12.04ZM1838.65,930.84c5.47-3.71,8.21-9.88,8.21-18.53v-7.15h-28.06c-7.59,0-13.37,1.42-17.34,4.24-3.97,2.83-5.96,6.71-5.96,11.65s1.99,8.74,5.96,11.38c3.97,2.65,9.75,3.97,17.34,3.97s14.38-1.85,19.85-5.56Z"/>
  <path class="cls-4" d="M1899.26,777.58h40.24v185.3h-40.5l.26-185.3Z"/>
  <path class="cls-4" d="M1968.22,954.8c-10.32-8.03-15.49-19.28-15.49-33.75s5.56-25.68,16.68-33.62c11.12-7.94,26.82-11.91,47.12-11.91h26.74c-.71-4.76-2.69-8.03-5.96-9.79-3.27-1.76-8.25-2.65-14.96-2.65l-53.74-.26v-32.29h45.53c23.47,0,40.72,3.84,51.75,11.51,11.03,7.68,16.54,20.69,16.54,39.04v81.8h-34.94v-6.62c-9.18,7.06-21.62,10.59-37.32,10.59-17.65,0-31.63-4.01-41.96-12.04ZM2035.32,930.84c5.47-3.71,8.21-9.88,8.21-18.53v-7.15h-28.06c-7.59,0-13.37,1.42-17.34,4.24-3.97,2.83-5.96,6.71-5.96,11.65s1.99,8.74,5.96,11.38c3.97,2.65,9.75,3.97,17.34,3.97s14.38-1.85,19.85-5.56Z"/>
  <path class="cls-4" d="M1565.62,850.31c-3.23,5.69-8.44,18.09-9.73,40.44-.78,13.6-7.58,23.62-15.3,30.7-3.81,3.5-7.84,6.28-11.49,8.41-.02.01-.02.02-.04.02-3.19,1.36-6.51,2.49-9.93,3.38,3.04-2.52,6.18-4.89,8.73-7.92,5.68-6.78,10.17-14.49,12.73-22.98,1.01-3.33,1.71-6.77,2.08-10.33,1.29-12.43,4.84-23.59,9.25-34.66.68-1.67.5-2.86-1.41-3.13-16.78-2.28-33.47-2.97-47.81,6.49-.79.52-1.57,1.07-2.34,1.65-10.92,8.22-16.97,19.18-18.8,32.19-.77,5.43-.8,11.21-.15,17.3.04.44.06.94.15,1.41.12.69.38,1.31,1.08,1.51,1.25.36,1.49-1.22,2.04-2.05,12.71-19.19,28.4-34.72,48.27-45.13.16-.08.32-.16.48-.23.83-.4,1.7-.71,2.65-.92-.6.57-1.2,1.14-1.8,1.7-4.27,4-8.62,7.86-12.75,12.01-15.96,15.98-27.88,35.16-37.35,56.34-.85,1.9-1.72,3.79-2.62,5.65-3,6.16-6.43,12.03-11.06,17.01l-.54.57c.62-4.3.68-10.72-1.27-19.75-4.23-19.68-8.58-47.21,14.62-82.63,19.07-29.12,64.19-17.76,79.64-12.8,1.01,1.85,1.9,3.78,2.67,5.75Z"/>
  <g>
    <path class="cls-1" d="M957.99,867.9c0,14.32-.97,30.52-4.94,46.36-2.85-5.57-6.36-12.7-10.32-17.66-7.58-9.5-25.62-21.94-36.83-26.44-12.86-5.17-27.08-5.21-40.54-2.82-12.67,2.24-24.94,7.65-35.84,14.38-12.48,7.71-23.73,17.32-34.78,26.92-9.81,8.51-19.7,16.93-29.94,24.92-.08.06-.16.13-.24.19-21.29,16.25-44,30.75-68.62,41.4-15.94,6.53-32.53,11.29-49.58,13.81-.01,0-.03,0-.05,0-13.83,1.69-27.81,1.87-41.65.22-11.07-1.66-21.94-4.5-32.33-8.68-.01,0-.03,0-.05-.02-8.68-3.87-16.88-8.7-24.5-14.38-.02,0-.04-.02-.06-.04-2.88-2.31-5.66-4.74-8.32-7.3,24.46,11.43,51.97,15.63,78.83,12.6,33.13-3.75,64.64-16.02,92.32-34.54,26.77-17.92,50.01-40.45,70.88-64.87,20.73-24.26,38.47-51.53,62.39-72.9,2.31-2.06,4.68-4.05,7.1-5.97,7.39-5.53,15.27-10.36,23.69-14.15,0,0,0,0,0,0,6.22-2.47,12.66-4.34,19.27-5.41,5.33-.55,10.68-.54,16,0,4.86.8,9.6,2.06,14.2,3.82,9.35,4.19,15.15,9.02,17.97,10.91,10.39,25.51,15.94,50.39,15.94,79.64Z"/>
    <path class="cls-3" d="M919.32,750.14c-.68-2.67-2.3-5.9-3.38-7.95-12.39-23.61-37.14-39.72-65.65-39.72-13.94,0-33.98,4.85-45.11,11.55,12.01,31.4,1.32,60.12,1.32,60.12,3.79-37.76-16.37-60.14-17.09-60.93h-.01c-13.23-13.88-30.47-24.24-50.49-29.06-31.24-7.52-62.58.04-86.38,17.99,21.98,17.57,36.09,44.59,36.09,74.85,0,52.81-42.97,95.78-95.78,95.78-23.56,0-51.16-10.56-67.86-24.72-4.12,8.99-6.41,18.9-6.41,29.31,0,32.56,22.33,60.21,53.38,70.15.23.07,6.45,2.14,6.68,2.21,1.67.31,4.91.89,5.58.99,11.63,1.37,23.36,1.25,34.98-.15,4.94-.75,9.85-1.71,14.69-2.88,0,0,0,0,.01,0,2.18-.52,4.34-1.09,6.5-1.69,6.96-1.96,13.81-4.34,20.51-7.07,16.61-7.26,32.08-16.71,46.49-27.67.06-.04.12-.09.18-.14.34-.27.67-.53,1.01-.81,17.55-13.98,33.37-29.98,48.07-46.91,3.4-3.92,6.72-7.92,10.01-11.98,24.14-29.77,46.15-62.16,79.49-82.33,17.63-10.67,45.62-18.66,66.43-17.5.74.04,1.47.09,2.2.15,1.08.09,3.25.36,5.19,1.01-.19-.49-.5-1.99-.65-2.59Z"/>
    <path class="cls-2" d="M593.62,848.11c-39.21,0-71.11-31.9-71.11-71.11s31.9-71.11,71.11-71.11,71.11,31.9,71.11,71.11-31.9,71.11-71.11,71.11Z"/>
    <path class="cls-1" d="M930.91,942.89c.62,6.02.57,12.06-.08,18.07-1.29,8.04-3.56,15.86-6.57,23.42,0,0,0,.01,0,.02-.82,1.87-1.7,3.72-2.61,5.55-39.09,60.06-106.82,99.77-183.83,99.77-64.93,0-123.27-28.24-163.41-73.1,5.19,1.95,10.49,3.59,15.86,4.93,30.29,7.55,62.36,6.15,92.49-1.49,28.78-7.31,56.02-20.67,80.79-36.87,12.81-8.38,25.07-17.59,37-27.17,11.2-8.99,21.85-18.6,32.84-27.82,2.32-1.95,4.67-3.87,7.05-5.74.02-.02.04-.04.07-.05,7.8-5.91,16.03-11.26,24.97-15.3,5.47-2.15,11.11-3.78,16.91-4.75,4.18-.42,8.37-.47,12.55-.08,3.19.57,6.32,1.39,9.36,2.52,2.9,1.38,5.66,3,8.27,4.87,2.87,2.41,5.5,5.08,7.88,7.96,2.6,3.62,4.84,7.48,6.7,11.53,1.71,4.44,2.98,9.03,3.78,13.72Z"/>
  </g>
  <circle class="cls-5" cx="593.56" cy="776.77" r="71"/>
</svg>